<?xml version="1.0" encoding="utf-8"?>
<!-- Generator: Adobe Illustrator 16.0.0, SVG Export Plug-In . SVG Version: 6.00 Build 0)  -->
<!DOCTYPE svg PUBLIC "-//W3C//DTD SVG 1.1//EN" "http://www.w3.org/Graphics/SVG/1.1/DTD/svg11.dtd">
<svg version="1.1" xmlns="http://www.w3.org/2000/svg" xmlns:xlink="http://www.w3.org/1999/xlink" x="0px" y="0px" width="512px"
	 height="512px" viewBox="0 0 512 512" enable-background="new 0 0 512 512" xml:space="preserve">
<g id="Layer_1">
	<rect width="512" height="512"/>
</g>
<g id="Layer_3">
	<g>
		<path fill="#FFFFFF" d="M76,154.072c0-21.323,17.15-38.442,38.451-38.442c21.336,0,38.479,17.119,38.479,38.442
			c0,21.336-17.15,38.463-38.479,38.463C93.143,192.536,76,175.417,76,154.072z M80.185,389.807V205.859h68.559v183.948H80.185z"/>
		<path fill="#FFFFFF" d="M208.268,354.023l39.972-57.142c19.033,18.285,47.631,32.78,81.893,32.78
			c14.479,0,28.178-3.823,28.178-13.746c0-24.371-141.672,0.405-141.672-99.755c0-43.03,35.782-84.148,105.482-84.148
			c41.533,0,78.828,11.787,107.794,35.412l-41.143,54.45c-22.076-16.749-50.636-25.151-74.64-25.151
			c-15.22,0-19.408,4.97-19.408,11.437c0,24.008,141.275,3.417,141.275,97.864c0,55.972-41.533,88.346-109.682,88.346
			C272.242,394.362,235.315,378.402,208.268,354.023z"/>
		<path fill="#FF0000" d="M189.468,217.977c42.827,0,77.551,34.719,77.551,77.55c0,42.831-34.724,77.547-77.551,77.547
			c-42.831,0-77.55-34.716-77.55-77.547C111.917,252.696,146.637,217.977,189.468,217.977z"/>
	</g>
</g>
</svg>
