<?xml version="1.0" encoding="utf-8"?>
<!-- Generator: Adobe Illustrator 16.0.0, SVG Export Plug-In . SVG Version: 6.00 Build 0)  -->
<!DOCTYPE svg PUBLIC "-//W3C//DTD SVG 1.1//EN" "http://www.w3.org/Graphics/SVG/1.1/DTD/svg11.dtd">
<svg version="1.1" id="Layer_1" xmlns="http://www.w3.org/2000/svg" xmlns:xlink="http://www.w3.org/1999/xlink" x="0px" y="0px"
	 width="200px" height="43px" viewBox="0 0 200 43" enable-background="new 0 0 200 43" xml:space="preserve">
<g>
	<path fill="#FFFFFF" d="M0,5.108c0-2.615,2.103-4.714,4.715-4.714c2.616,0,4.718,2.099,4.718,4.714
		c0,2.616-2.103,4.716-4.718,4.716C2.102,9.824,0,7.725,0,5.108z M0.513,34.014V11.458h8.407v22.556H0.513z"/>
	<path fill="#FFFFFF" d="M28.772,34.014V21.547c0-2.335-1.262-3.222-3.27-3.222c-1.913,0-2.893,0.979-3.593,1.772v13.916h-8.407
		V11.458h8.407v2.57c1.308-1.493,3.779-3.129,7.749-3.129c5.231,0,7.521,3.176,7.521,7.101v16.014H28.772z"/>
	<path fill="#FFFFFF" d="M77.317,29.626l4.901-7.007c2.334,2.242,5.841,4.019,10.042,4.019c1.775,0,3.455-0.468,3.455-1.685
		c0-2.988-17.372,0.05-17.372-12.232c0-5.276,4.388-10.318,12.935-10.318c5.092,0,9.666,1.445,13.217,4.342l-5.045,6.677
		c-2.707-2.054-6.209-3.084-9.152-3.084c-1.867,0-2.38,0.609-2.38,1.402c0,2.944,17.323,0.419,17.323,12
		c0,6.864-5.092,10.833-13.449,10.833C85.161,34.572,80.633,32.615,77.317,29.626z"/>
	<path fill="#FFFFFF" d="M117.121,31.633v10.973h-8.407V11.458h8.407v2.38c1.821-2.144,4.015-2.938,6.35-2.938
		c5.604,0,9.901,4.111,9.901,11.814c0,7.752-4.297,11.858-9.901,11.858C121.136,34.572,118.988,33.781,117.121,31.633z
		 M124.78,22.714c0-2.803-1.963-4.389-4.207-4.389c-1.072,0-2.661,0.559-3.452,1.541v5.74c0.746,0.936,2.38,1.544,3.452,1.544
		C122.817,27.15,124.78,25.562,124.78,22.714z"/>
	<path fill="#FFFFFF" d="M136.22,22.714c0-6.306,4.668-11.814,12.654-11.814c8.031,0,12.699,5.509,12.699,11.814
		c0,6.305-4.668,11.858-12.699,11.858C140.888,34.572,136.22,29.019,136.22,22.714z M152.935,22.714
		c0-2.476-1.443-4.389-4.061-4.389c-2.566,0-4.016,1.913-4.016,4.389c0,2.52,1.449,4.437,4.016,4.437
		C151.491,27.15,152.935,25.233,152.935,22.714z"/>
	<path fill="#FFFFFF" d="M164.735,34.014V11.458h8.406v2.476c1.4-1.635,4.342-3.13,6.91-3.13v8.035
		c-0.42-0.141-1.119-0.235-1.914-0.235c-1.775,0-4.064,0.468-4.996,1.588v13.822H164.735z"/>
	<path fill="#FFFFFF" d="M186.552,27.478v-8.733h-3.732v-7.286h3.732V5.296h8.408v6.162h4.578v7.286h-4.578v6.304
		c0,1.168,0.748,2.103,1.867,2.103c0.748,0,1.492-0.235,1.68-0.422l1.494,6.35c-0.887,0.794-2.848,1.494-5.695,1.494
		C189.308,34.572,186.552,32.192,186.552,27.478z"/>
	<circle fill="#C52026" cx="58.391" cy="22.453" r="9.509"/>
</g>
</svg>
