<?xml version="1.0" encoding="utf-8"?>
<!-- Generator: Adobe Illustrator 16.0.0, SVG Export Plug-In . SVG Version: 6.00 Build 0)  -->
<!DOCTYPE svg PUBLIC "-//W3C//DTD SVG 1.1//EN" "http://www.w3.org/Graphics/SVG/1.1/DTD/svg11.dtd">
<svg version="1.1" id="Layer_1" xmlns="http://www.w3.org/2000/svg" xmlns:xlink="http://www.w3.org/1999/xlink" x="0px" y="0px"
	 width="566.929px" height="127.559px" viewBox="0 0 566.929 127.559" enable-background="new 0 0 566.929 127.559"
	 xml:space="preserve">
<g id="g7433">
	<path id="path7429" fill="#FF0000" d="M176.924,20.869c-2.083-7.737-8.184-13.838-15.922-15.921
		c-14.136-3.869-70.68-3.869-70.68-3.869s-56.544,0-70.68,3.72C12.053,6.882,5.803,13.132,3.72,20.869C0,35.006,0,64.32,0,64.32
		s0,29.462,3.72,43.449c2.083,7.738,8.184,13.839,15.921,15.922c14.285,3.869,70.68,3.869,70.68,3.869s56.544,0,70.68-3.72
		c7.738-2.083,13.839-8.184,15.922-15.922c3.72-14.136,3.72-43.449,3.72-43.449S180.792,35.006,176.924,20.869L176.924,20.869z"/>
	<path id="polygon7431" fill="#FFFFFF" d="M72.317,37.238v54.163l47.021-27.081L72.317,37.238z"/>
</g>
<g id="g7451">
	<g id="g7449">
		<path id="path7435" fill="#FFFFFF" d="M262.335,116.251c-3.571-2.381-6.101-6.101-7.589-11.309
			c-1.488-5.059-2.231-11.904-2.231-20.237V73.247c0-8.481,0.892-15.326,2.529-20.534c1.785-5.208,4.464-8.928,8.035-11.309
			c3.72-2.381,8.482-3.571,14.434-3.571c5.803,0,10.565,1.19,14.136,3.571c3.571,2.381,6.101,6.25,7.738,11.309
			c1.637,5.059,2.529,11.904,2.529,20.534v11.458c0,8.481-0.744,15.178-2.381,20.386c-1.637,5.059-4.167,8.928-7.738,11.309
			c-3.571,2.381-8.481,3.571-14.582,3.571C270.965,119.822,265.906,118.631,262.335,116.251L262.335,116.251z M282.423,103.751
			c1.042-2.53,1.488-6.845,1.488-12.648V66.403c0-5.654-0.446-9.821-1.488-12.5c-1.041-2.678-2.678-3.869-5.208-3.869
			c-2.381,0-4.167,1.339-5.059,3.869c-1.042,2.679-1.488,6.845-1.488,12.5v24.701c0,5.803,0.446,10.118,1.488,12.648
			c0.892,2.529,2.678,3.869,5.208,3.869C279.745,107.62,281.382,106.43,282.423,103.751z"/>
		<path id="path7437" fill="#FFFFFF" d="M537.02,84.853v4.018c0,5.059,0.149,8.928,0.446,11.458
			c0.297,2.529,0.893,4.464,1.934,5.505c0.893,1.19,2.381,1.786,4.464,1.786c2.679,0,4.464-1.042,5.505-3.125
			c1.042-2.083,1.488-5.505,1.637-10.416l15.327,0.892c0.149,0.745,0.149,1.637,0.149,2.828c0,7.292-1.934,12.797-5.952,16.368
			c-4.018,3.572-9.672,5.357-16.963,5.357c-8.78,0-14.88-2.827-18.452-8.333c-3.571-5.505-5.356-13.987-5.356-25.593V71.759
			c0-11.904,1.785-20.534,5.505-26.04c3.72-5.505,9.97-8.184,18.749-8.184c6.101,0,10.862,1.191,14.136,3.422
			c3.273,2.232,5.505,5.804,6.844,10.417c1.339,4.762,1.935,11.309,1.935,19.642v13.541H537.02V84.853z M539.252,51.523
			c-0.893,1.19-1.488,2.976-1.786,5.505c-0.297,2.53-0.446,6.398-0.446,11.606v5.655h13.094v-5.655
			c0-5.059-0.148-8.928-0.446-11.606s-1.042-4.464-1.935-5.505c-0.893-1.042-2.38-1.637-4.166-1.637
			C541.485,49.737,540.145,50.332,539.252,51.523L539.252,51.523z"/>
		<path id="path7439" fill="#FFFFFF" d="M218.885,83.365l-20.237-73.358h17.707l7.143,33.183c1.786,8.184,3.125,15.178,4.017,20.981
			h0.447c0.595-4.167,1.935-11.011,4.018-20.832l7.44-33.332h17.708l-20.535,73.358v35.117h-17.559V83.365H218.885z"/>
		<path id="path7441" fill="#FFFFFF" d="M359.502,39.321v79.311h-13.988l-1.488-9.672h-0.446
			c-3.72,7.292-9.523,11.011-17.112,11.011c-5.208,0-9.077-1.786-11.607-5.208c-2.529-3.422-3.72-8.779-3.72-16.219V39.321h17.856
			v58.181c0,3.571,0.446,6.101,1.19,7.589c0.744,1.488,2.083,2.232,3.869,2.232c1.488,0,2.976-0.446,4.464-1.488
			c1.488-0.893,2.53-2.083,3.125-3.571V39.321H359.502z"/>
		<path id="path7443" fill="#FFFFFF" d="M451.014,39.321v79.311h-13.987l-1.488-9.672h-0.446
			c-3.72,7.292-9.523,11.011-17.112,11.011c-5.208,0-9.076-1.786-11.606-5.208c-2.53-3.422-3.72-8.779-3.72-16.219V39.321h17.856
			v58.181c0,3.571,0.446,6.101,1.191,7.589c0.744,1.488,2.083,2.232,3.869,2.232c1.488,0,2.976-0.446,4.464-1.488
			c1.488-0.893,2.529-2.083,3.125-3.571V39.321H451.014z"/>
		<path id="path7445" fill="#FFFFFF" d="M408.01,24.441h-17.708v94.042h-17.41V24.441h-17.707V10.007h52.824V24.441z"/>
		<path id="path7447" fill="#FFFFFF" d="M510.087,51.969c-1.042-5.06-2.827-8.63-5.208-10.863c-2.381-2.232-5.804-3.422-9.97-3.422
			c-3.273,0-6.398,0.893-9.226,2.827c-2.828,1.786-5.06,4.315-6.547,7.292h-0.149V5.99h-17.261v112.493h14.731l1.786-7.44h0.447
			c1.339,2.679,3.422,4.762,6.25,6.398c2.827,1.488,5.803,2.381,9.226,2.381c6.101,0,10.416-2.827,13.243-8.333
			c2.828-5.506,4.315-14.285,4.315-26.04v-12.5C511.575,63.872,511.129,56.879,510.087,51.969L510.087,51.969z M493.719,84.259
			c0,5.803-0.298,10.267-0.745,13.541c-0.446,3.273-1.338,5.655-2.38,6.994c-1.19,1.338-2.679,2.083-4.464,2.083
			c-1.488,0-2.827-0.298-4.017-1.042c-1.19-0.744-2.232-1.786-2.976-3.125V57.772c0.595-2.083,1.637-3.869,3.125-5.357
			c1.488-1.338,3.125-2.083,4.761-2.083c1.786,0,3.274,0.745,4.167,2.083c1.042,1.488,1.637,3.869,2.083,7.143
			c0.446,3.422,0.595,8.184,0.595,14.285v10.416H493.719z"/>
	</g>
</g>
</svg>
